<svg class="icon icon-ghost" width="25" height="30" viewBox="0 0 25 30" fill="none" xmlns="http://www.w3.org/2000/svg">
<path d="M21.8099 14.5725C22.5125 13.6637 22.7046 12.893 22.7505 12.3558C22.7974 11.8024 22.6876 11.5055 22.6772 10.7204C22.6659 9.84898 22.7875 9.14096 22.8905 8.68337C21.9808 9.57505 19.98 11.4892 17.6864 13.2762C15.0149 15.3583 16.211 13.9439 14.2285 15.3432C13.9637 15.5298 13.3689 15.9601 13.0074 15.7551C12.7118 15.5872 12.7231 15.0796 12.7238 15.0535C12.744 14.4681 13.241 14.1061 13.61 13.7321C14.3379 12.995 14.5935 12.1867 14.9411 11.0883C15.174 10.3511 15.5193 9.26095 15.2351 8.03916C15.0404 7.20204 14.4395 6.49448 13.2445 5.11352C11.9305 3.59439 10.8884 2.66018 10.4491 2.27649C8.4427 0.524945 7.60361 0.305619 6.97647 0.268188C6.48143 0.238911 6.06888 0.320438 5.7951 0.394693C6.23491 0.401235 6.82222 0.482681 7.13048 0.891575C7.5594 1.46083 7.11317 2.22038 6.81144 3.61614C6.66301 4.30267 6.66039 5.57493 6.65619 8.11918C6.65338 9.73874 6.70369 10.3172 6.98559 11.0143C7.22328 11.6015 7.50903 11.9862 7.99339 12.6393C9.25833 14.3437 10.1819 14.8491 9.99738 15.3963C9.87921 15.7458 9.38828 15.8737 9.08735 15.9519C8.3364 16.1473 7.86626 15.844 6.73927 15.5949C5.54586 15.3314 5.64382 15.5762 4.68943 15.3297C3.98819 15.1485 3.41398 14.8389 2.26556 14.2198C0.990533 13.5322 0.753623 13.2715 0.594649 13.0341C0.217247 12.4703 0.158456 11.862 0.157675 11.4885C-0.111071 12.6452 0.0268643 13.4957 0.176609 14.0193C0.386246 14.7541 0.733091 15.2455 2.27044 17.1399C2.88558 17.8985 3.44346 18.5748 3.92607 19.1562C3.4622 19.5833 2.99769 20.01 2.53383 20.4371C2.85546 20.6614 3.36969 20.9781 4.05012 21.2201C7.47496 22.4393 10.617 20.1665 11.2148 20.9933C11.3924 21.2394 11.2266 21.5945 9.58357 24.2074C7.35496 27.7521 6.62477 28.7477 5.23451 29.3607C4.61027 29.6362 4.05177 29.7472 3.68888 29.7977C4.19583 29.8395 4.94021 29.8584 5.81756 29.7128C6.72348 29.5623 7.12823 29.3443 8.22066 28.9537C10.9513 27.9787 11.3124 28.3117 12.0789 27.6147C12.154 27.546 13.2487 26.522 13.319 25.0484C13.3744 23.8805 12.756 23.0819 12.4609 20.906C12.4139 20.5593 12.3475 19.9738 12.5416 19.8939C12.6817 19.8361 12.8997 20.065 12.9951 20.1677C13.5782 20.792 13.5883 21.4912 13.7688 21.9608C14.0966 22.8147 15.0813 23.1502 16.2563 23.5511C16.8769 23.7632 19.2593 24.5758 21.0197 23.4215C21.068 23.3898 21.4815 22.9817 22.308 22.1662C23.3468 21.1412 23.7014 20.7604 23.9618 20.1592C24.1741 19.6685 24.2408 19.2227 24.2637 18.9271C23.316 19.9345 22.4322 20.3061 21.8325 20.4647C20.121 20.9174 19.4 19.987 16.6291 20.1518C15.5057 20.2188 14.576 20.4336 14.4876 20.1848C14.4106 19.9668 15.0363 19.5614 15.3334 19.3695C16.5788 18.563 17.4048 18.6241 18.8415 17.9516C19.21 17.779 19.538 17.5784 20.1934 17.1767C21.4481 16.4076 22.4263 15.6775 23.1062 15.1342C22.674 14.9466 22.2421 14.7601 21.8099 14.5725Z" fill="#251D10"/>
</svg>
